<?xml version="1.0" standalone="no"?>
<!DOCTYPE svg PUBLIC "-//W3C//DTD SVG 20010904//EN"
 "http://www.w3.org/TR/2001/REC-SVG-20010904/DTD/svg10.dtd">
<svg version="1.0" xmlns="http://www.w3.org/2000/svg"
 width="256.000000pt" height="256.000000pt" viewBox="0 0 256.000000 256.000000"
 preserveAspectRatio="xMidYMid meet">
<metadata>
Created by potrace 1.11, written by Peter Selinger 2001-2013
</metadata>
<g transform="translate(0.000000,256.000000) scale(0.100000,-0.100000)"
fill="#000000" stroke="none">
<path d="M683 2498 c-19 -9 -33 -35 -33 -65 0 -6 10 -24 23 -40 23 -27 23 -32
23 -244 -1 -192 -3 -217 -19 -233 -46 -46 -64 -126 -42 -182 16 -39 54 -84 72
-84 7 0 13 -4 13 -10 0 -5 12 -10 28 -10 50 0 51 -3 50 -193 -1 -97 2 -181 6
-185 4 -4 83 -7 174 -7 l167 -1 0 -34 0 -35 -155 -2 c-85 -1 -163 -4 -174 -6
-21 -4 -66 -44 -66 -58 0 -5 -13 -9 -30 -9 -23 0 -30 5 -30 19 0 24 -36 51
-66 51 -12 0 -32 -8 -44 -18 -22 -17 -22 -24 -22 -198 0 -258 -1 -245 22 -251
29 -8 25 -40 -8 -57 -32 -17 -57 -58 -49 -80 9 -23 44 -20 50 4 7 27 53 47 75
33 9 -5 22 -19 27 -29 6 -10 20 -20 33 -20 35 -2 27 34 -18 77 -44 42 -50 64
-20 72 19 5 20 14 20 176 l0 171 37 0 c20 0 34 -3 30 -6 -15 -15 48 -54 87
-54 21 0 27 -7 36 -41 6 -22 13 -54 14 -72 2 -18 6 -39 10 -47 6 -17 42 -172
51 -221 7 -36 18 -61 28 -60 29 4 33 -1 32 -41 -1 -24 2 -46 7 -49 4 -3 0 -32
-11 -65 -21 -66 -38 -146 -46 -215 -2 -25 -12 -59 -20 -75 -27 -53 -25 -54
110 -54 69 0 125 2 125 5 0 3 -7 22 -15 41 -12 28 -15 81 -14 245 1 207 1 209
22 210 33 1 199 1 222 0 19 -1 20 -8 19 -214 -1 -140 -5 -220 -12 -234 -27
-50 -21 -53 108 -53 114 0 120 1 120 20 0 12 -6 31 -14 43 -8 12 -16 49 -20
82 -7 79 -13 110 -33 170 -9 28 -14 50 -12 51 2 0 -2 8 -10 17 -9 11 -10 17
-2 17 7 0 11 20 11 50 0 47 5 55 32 51 8 -1 28 64 28 90 0 9 3 19 7 22 3 4 7
17 9 29 2 19 36 178 59 275 4 17 13 23 31 23 31 0 65 17 82 42 7 10 25 18 41
18 l29 0 1 -165 c0 -91 3 -170 6 -175 4 -6 13 -10 21 -10 22 0 17 -41 -6 -47
-21 -6 -60 -61 -60 -85 0 -10 9 -15 25 -15 14 0 25 5 25 12 0 18 34 45 57 45
21 0 53 -29 53 -48 0 -7 11 -12 25 -12 43 0 25 64 -26 94 -33 20 -38 51 -9 59
23 6 22 -6 22 246 -1 203 -6 221 -64 221 -30 0 -68 -30 -68 -55 0 -26 -55 -19
-70 9 -20 39 -55 47 -225 49 l-160 2 -2 35 -3 35 180 -1 180 -1 0 61 c1 34 1
118 1 188 l0 128 27 6 c113 27 169 130 127 231 -9 21 -23 45 -31 54 -12 13
-16 38 -15 98 2 107 2 98 1 239 0 110 2 126 21 151 27 37 19 83 -17 100 -35
16 -51 14 -74 -9 -27 -27 -26 -71 3 -98 21 -20 22 -26 20 -209 -2 -260 1 -236
-25 -222 -13 7 -25 11 -28 10 -3 -1 -8 30 -12 68 -11 108 -75 244 -142 304
-60 53 -74 64 -111 81 -199 94 -422 59 -573 -90 -53 -53 -105 -136 -119 -189
-1 -5 -7 -28 -12 -50 -6 -22 -11 -65 -12 -95 0 -30 -3 -49 -6 -43 -3 8 -14 11
-27 7 l-23 -5 0 211 c0 168 3 212 14 218 7 4 17 22 22 39 8 28 6 36 -16 57
-27 28 -45 31 -80 14z m122 -807 c3 -5 2 -12 -3 -15 -5 -3 -9 1 -9 9 0 17 3
19 12 6z"/>
</g>
</svg>
